<svg width="14" height="14" viewBox="0 0 14 14" fill="none" xmlns="http://www.w3.org/2000/svg" class="flex-grow-0 flex-shrink-0 w-3.5 h-3.5 relative" preserveAspectRatio="xMidYMid meet"
  >
    <g clip-path="url(#clip0_426_3442)">
      <path
        d="M10.8889 14H3.1111C2.28015 14 1.49889 13.6764 0.911239 13.0887C0.323616 12.5012 0 11.7199 0 10.8889V10.1111C0 9.68148 0.348205 9.33325 0.777782 9.33325C1.20736 9.33325 1.55556 9.68148 1.55556 10.1111V10.8889C1.55556 11.3044 1.71739 11.695 2.01114 11.9888C2.30498 12.2826 2.6956 12.4444 3.1111 12.4444H10.8889C11.3043 12.4444 11.695 12.2826 11.9888 11.9888C12.2826 11.6949 12.4444 11.3043 12.4444 10.8889V10.1111C12.4444 9.68148 12.7926 9.33325 13.2222 9.33325C13.6517 9.33325 14 9.68148 14 10.1111V10.8889C14 11.7198 13.6764 12.5011 13.0887 13.0887C12.5011 13.6764 11.7198 14 10.8889 14ZM6.99999 10.8888C6.79689 10.8891 6.6018 10.8097 6.45665 10.6676L6.4566 10.6676L6.45505 10.6661L6.45461 10.6656C6.45418 10.6652 6.4538 10.6648 6.45339 10.6644L6.4526 10.6636C6.45232 10.6633 6.45203 10.6631 6.45173 10.6628L6.45005 10.6611L3.33892 7.54995C3.03519 7.24622 3.03519 6.75375 3.33892 6.44999C3.64265 6.14627 4.13515 6.14624 4.43888 6.44999L6.22223 8.23335V0.777782C6.2222 0.348205 6.57041 0 6.99999 0C7.42956 0 7.7778 0.348205 7.7778 0.777782V8.23332L9.56112 6.44999C9.86482 6.14627 10.3574 6.14627 10.6611 6.44999C10.9648 6.75372 10.9648 7.24622 10.6611 7.54995L7.54995 10.6611L7.54827 10.6627L7.5474 10.6636L7.54661 10.6644C7.54623 10.6648 7.54579 10.6652 7.54541 10.6656L7.54495 10.666C7.54446 10.6665 7.54395 10.667 7.54343 10.6675L7.54338 10.6676C7.53482 10.6759 7.52615 10.684 7.51729 10.6919C7.4538 10.7486 7.38137 10.7945 7.30293 10.8276L7.30217 10.8279C7.30187 10.828 7.30162 10.8282 7.30132 10.8283C7.20593 10.8684 7.10347 10.889 6.99999 10.8888Z"
        fill="url(#paint0_linear_426_3442)"
      ></path>
    </g>
    <defs>
      <linearGradient
        id="paint0_linear_426_3442"
        x1="7"
        y1="0"
        x2="7"
        y2="14"
        gradientUnits="userSpaceOnUse"
      >
        <stop stop-color="#97E89A"></stop>
        <stop offset="1" stop-color="#41D147"></stop>
      </linearGradient>
      <clipPath id="clip0_426_3442"><rect width="14" height="14" fill="white"></rect></clipPath>
    </defs>
  </svg>