<svg width="21" height="20" viewBox="0 0 21 20" fill="none" xmlns="http://www.w3.org/2000/svg">
<g clip-path="url(#clip0_63_60)">
<path d="M11.8836 1.00349C6.8676 0.863517 2.75822 4.95272 2.75822 10.0017H0.994244C0.550785 10.0017 0.333983 10.5416 0.649332 10.8516L3.39877 13.651C3.59587 13.851 3.90136 13.851 4.09845 13.651L6.84789 10.8516C6.91599 10.7811 6.962 10.6917 6.98013 10.5948C6.99825 10.4978 6.98768 10.3975 6.94974 10.3067C6.9118 10.2158 6.84819 10.1383 6.76694 10.0841C6.68568 10.0298 6.59041 10.0011 6.49313 10.0017H4.72915C4.72915 6.10249 7.86292 2.95311 11.7259 3.0031C15.3919 3.05309 18.4764 6.18247 18.5256 9.90175C18.5749 13.811 15.4707 17.0004 11.6274 17.0004C10.0408 17.0004 8.57246 16.4505 7.40961 15.5206C7.22086 15.3698 6.98404 15.2946 6.74419 15.3093C6.50435 15.3241 6.27821 15.4278 6.1088 15.6006C5.6949 16.0205 5.72447 16.7304 6.18763 17.0903C7.73592 18.3326 9.65348 19.0057 11.6274 19C16.604 19 20.6345 14.8308 20.4966 9.74178C20.3685 5.0527 16.5054 1.13346 11.8836 1.00349ZM11.381 6.00251C10.977 6.00251 10.6419 6.34244 10.6419 6.75236V10.4316C10.6419 10.7816 10.8292 11.1115 11.1248 11.2915L14.1995 13.1411C14.5542 13.3511 15.0075 13.2311 15.2145 12.8812C15.4214 12.5212 15.3032 12.0613 14.9583 11.8514L12.1201 10.1417V6.74236C12.1201 6.34244 11.7851 6.00251 11.381 6.00251Z" fill="white"/>
</g>
<defs>
<clipPath id="clip0_63_60">
<rect width="20" height="20" fill="white" transform="translate(0.5)"/>
</clipPath>
</defs>
</svg>
