<svg width="40" height="40" viewBox="0 0 40 40" fill="none" xmlns="http://www.w3.org/2000/svg">
<path d="M6.84133 35.3003C6.68409 35.3005 6.52841 35.269 6.38365 35.2076C6.23888 35.1462 6.10799 35.0563 5.99883 34.9431C2.13039 30.9432 0 25.6359 0 19.999C0 14.3632 2.12969 9.05677 5.99664 5.05716C6.44641 4.59192 7.1882 4.57926 7.65375 5.02926C8.11898 5.47911 8.13148 6.22098 7.68164 6.6863C4.23945 10.2465 2.34375 14.9743 2.34375 19.999C2.34375 25.0247 4.24008 29.7533 7.68359 33.3137C8.13352 33.779 8.12117 34.5208 7.65594 34.9707C7.43764 35.1824 7.1454 35.3006 6.84133 35.3003Z" fill="url(#paint0_linear_406_2602)"/>
<path d="M10.746 31.2633C10.5887 31.2635 10.4331 31.232 10.2883 31.1706C10.1435 31.1092 10.0126 31.0193 9.90348 30.9061C7.07957 27.9863 5.52441 24.1127 5.52441 19.999C5.52441 15.8865 7.07879 12.0138 9.90121 9.09422C10.351 8.62883 11.0929 8.61633 11.5582 9.06617C12.0236 9.51602 12.0361 10.2579 11.5862 10.7232C9.18856 13.2034 7.86809 16.4976 7.86809 19.999C7.86809 23.5015 9.18918 26.7963 11.5881 29.2768C12.0381 29.742 12.0257 30.4839 11.5604 30.9338C11.3422 31.1454 11.05 31.2636 10.746 31.2633Z" fill="url(#paint1_linear_406_2602)"/>
<path d="M14.6496 27.2262C14.4923 27.2265 14.3367 27.195 14.1919 27.1336C14.0471 27.0722 13.9162 26.9822 13.8071 26.8691C12.0278 25.0293 11.0479 22.5894 11.0479 19.9989C11.0479 17.4097 12.0269 14.9707 13.8047 13.1312C14.2543 12.6659 14.9963 12.653 15.4618 13.103C15.9271 13.5528 15.9398 14.2947 15.49 14.7601C14.1368 16.1602 13.3916 18.0207 13.3916 19.999C13.3916 21.9782 14.1375 23.8394 15.4918 25.2398C15.9418 25.7051 15.9294 26.4469 15.4641 26.8969C15.2458 27.1085 14.9536 27.2266 14.6496 27.2262ZM33.1561 35.3024C32.8519 35.3028 32.5597 35.1846 32.3414 34.9728C31.8762 34.5228 31.8639 33.7809 32.3139 33.3158C35.7587 29.755 37.6558 25.0257 37.6558 19.999C37.6558 14.9733 35.7595 10.2447 32.316 6.68421C31.8661 6.21898 31.8784 5.4771 32.3437 5.02718C32.809 4.5771 33.5509 4.58968 34.0007 5.05484C37.8691 9.05468 39.9996 14.3619 39.9996 19.999C39.9996 25.6372 37.8683 30.9452 33.9984 34.9454C33.8892 35.0585 33.7584 35.1484 33.6136 35.2098C33.4689 35.2711 33.3133 35.3026 33.1561 35.3024Z" fill="url(#paint2_linear_406_2602)"/>
<path d="M29.2518 31.2655C28.9476 31.2659 28.6553 31.1476 28.437 30.9358C27.972 30.4857 27.9598 29.7439 28.4097 29.2788C30.8099 26.7982 32.1317 23.5025 32.1317 19.999C32.1317 16.4966 30.8106 13.2017 28.4117 10.7212C27.9617 10.256 27.9741 9.51409 28.4394 9.06417C28.9047 8.61409 29.6466 8.62667 30.0964 9.09183C32.9202 12.0117 34.4755 15.8853 34.4755 19.999C34.4755 24.114 32.9195 27.9885 30.0941 30.9085C29.985 31.0216 29.8541 31.1116 29.7094 31.1729C29.5646 31.2342 29.409 31.2657 29.2518 31.2655Z" fill="url(#paint3_linear_406_2602)"/>
<path d="M25.3475 27.2284C25.0433 27.2289 24.751 27.1105 24.5327 26.8986C24.0676 26.4485 24.0555 25.7067 24.5056 25.2416C25.8611 23.8409 26.6076 21.9791 26.6076 19.9989C26.6076 18.0197 25.8618 16.1585 24.5074 14.7581C24.0574 14.2928 24.0698 13.5509 24.535 13.101C25.0003 12.6509 25.7422 12.6635 26.1921 13.1288C27.9714 14.9685 28.9513 17.4084 28.9513 19.9989C28.9513 22.5907 27.9705 25.0315 26.1896 26.8715C26.0805 26.9846 25.9496 27.0745 25.805 27.1358C25.6603 27.1972 25.5047 27.2287 25.3475 27.2284ZM19.9997 23.5156C18.078 23.5156 16.5146 21.9385 16.5146 20C16.5146 18.0615 18.0781 16.4844 19.9997 16.4844C21.9214 16.4844 23.4848 18.0615 23.4848 20C23.4848 21.9385 21.9214 23.5156 19.9997 23.5156Z" fill="url(#paint4_linear_406_2602)"/>
<defs>
<linearGradient id="paint0_linear_406_2602" x1="4.00656" y1="4.69983" x2="4.00656" y2="35.3003" gradientUnits="userSpaceOnUse">
<stop stop-color="#97E89A"/>
<stop offset="1" stop-color="#41D147"/>
</linearGradient>
<linearGradient id="paint1_linear_406_2602" x1="8.72102" y1="8.73682" x2="8.72102" y2="31.2633" gradientUnits="userSpaceOnUse">
<stop stop-color="#97E89A"/>
<stop offset="1" stop-color="#41D147"/>
</linearGradient>
<linearGradient id="paint2_linear_406_2602" x1="25.5237" y1="4.69763" x2="25.5237" y2="35.3024" gradientUnits="userSpaceOnUse">
<stop stop-color="#97E89A"/>
<stop offset="1" stop-color="#41D147"/>
</linearGradient>
<linearGradient id="paint3_linear_406_2602" x1="31.2778" y1="8.73462" x2="31.2778" y2="31.2655" gradientUnits="userSpaceOnUse">
<stop stop-color="#97E89A"/>
<stop offset="1" stop-color="#41D147"/>
</linearGradient>
<linearGradient id="paint4_linear_406_2602" x1="22.733" y1="12.7715" x2="22.733" y2="27.2284" gradientUnits="userSpaceOnUse">
<stop stop-color="#97E89A"/>
<stop offset="1" stop-color="#41D147"/>
</linearGradient>
</defs>
</svg>