<svg width="21" height="20" viewBox="0 0 21 20" fill="none" xmlns="http://www.w3.org/2000/svg">
<g clip-path="url(#clip0_130_5)">
<path d="M3.33333 20.0691L17.875 13.8358C18.0253 13.7718 18.1535 13.6649 18.2436 13.5286C18.3337 13.3923 18.3817 13.2325 18.3817 13.0691C18.3817 12.9057 18.3337 12.7459 18.2436 12.6096C18.1535 12.4733 18.0253 12.3665 17.875 12.3025L3.33333 6.06913C3.20742 6.01421 3.06981 5.9915 2.93292 6.00305C2.79604 6.0146 2.66418 6.06005 2.54925 6.13529C2.43432 6.21054 2.33992 6.31321 2.27459 6.43405C2.20925 6.55489 2.17503 6.69009 2.175 6.82747L2.16667 10.6691C2.16667 11.0858 2.475 11.4441 2.89167 11.4941L14.6667 13.0691L2.89167 14.6358C2.475 14.6941 2.16667 15.0525 2.16667 15.4691L2.175 19.3108C2.175 19.9025 2.78333 20.3108 3.33333 20.0691Z" fill="white"/>
</g>
<defs>
<clipPath id="clip0_130_5">
<rect width="20" height="20" fill="white" transform="translate(0.5)"/>
</clipPath>
</defs>
</svg>
