<svg width="20" height="20" viewBox="0 0 20 20" fill="none" xmlns="http://www.w3.org/2000/svg">
<path d="M7.48 13.5L10 10.98L12.52 13.5L13.5 12.52L10.98 10L13.5 7.48L12.52 6.5L10 9.02L7.48 6.5L6.5 7.48L9.02 10L6.5 12.52L7.48 13.5ZM10 17C9.03167 17 8.12167 16.8161 7.27 16.4484C6.41833 16.0807 5.6775 15.582 5.0475 14.9525C4.4175 14.3225 3.91887 13.5817 3.5516 12.73C3.18433 11.8783 3.00047 10.9683 3 10C3 9.03167 3.18387 8.12167 3.5516 7.27C3.91933 6.41833 4.41797 5.6775 5.0475 5.0475C5.6775 4.4175 6.41833 3.91887 7.27 3.5516C8.12167 3.18433 9.03167 3.00047 10 3C10.9683 3 11.8783 3.18387 12.73 3.5516C13.5817 3.91933 14.3225 4.41797 14.9525 5.0475C15.5825 5.6775 16.0814 6.41833 16.4491 7.27C16.8168 8.12167 17.0005 9.03167 17 10C17 10.9683 16.8161 11.8783 16.4484 12.73C16.0807 13.5817 15.582 14.3225 14.9525 14.9525C14.3225 15.5825 13.5817 16.0814 12.73 16.4491C11.8783 16.8168 10.9683 17.0005 10 17Z" fill="#FF5252"/>
</svg>
