<svg width="21" height="21" viewBox="0 0 21 21" fill="none" xmlns="http://www.w3.org/2000/svg">
                                <g clip-path="url(#clip0_183_975)">
                                    <path d="M7.79172 16.75C5.83922 16.75 4.25 15.1608 4.25 13.2083V4.66675H2.79172C1.52754 4.66675 0.5 5.69409 0.5 6.95831V18.2083C0.5 19.4725 1.52754 20.5 2.79172 20.5H13.2083C14.4725 20.5 15.5 19.4725 15.5 18.2083V16.75H7.79172Z" fill="white" />
                                    <path d="M18.8333 2.79172C18.8333 1.52586 17.8074 0.5 16.5417 0.5H7.79172C6.52586 0.5 5.5 1.52586 5.5 2.79172V13.2083C5.5 14.4741 6.52586 15.5 7.79172 15.5H16.5417C17.8074 15.5 18.8333 14.4741 18.8333 13.2083V2.79172Z" fill="white" />
                                </g>
                                <defs>
                                    <clipPath id="clip0_183_975">
                                        <rect x="0.5" y="0.5" width="20" height="20" fill="white" />
                                    </clipPath>
                                </defs>
                            </svg>