<svg width="80" height="80" viewBox="0 0 85 85" fill="none" xmlns="http://www.w3.org/2000/svg">
<path d="M56.6703 46.9167C56.6685 46.5298 57.088 46.2876 57.4222 46.4826L80.3182 59.8375C80.6986 60.0594 80.6271 60.6291 80.2037 60.7501L71.4169 63.2623C71.1041 63.3517 70.9587 63.7113 71.1213 63.993L78.0772 76.0423C78.2153 76.2814 78.1333 76.5872 77.8942 76.7252L72.626 79.7669C72.3869 79.905 72.0811 79.8231 71.943 79.584L64.9872 67.5382C64.8246 67.2565 64.4405 67.2027 64.2066 67.4288L57.6362 73.7835C57.3197 74.0896 56.7906 73.8667 56.7886 73.4263L56.6703 46.9167ZM49.583 21.75C49.583 21.4739 49.8069 21.25 50.083 21.25H56.1663C56.4425 21.25 56.6663 21.4739 56.6663 21.75V27.8334C56.6663 28.1095 56.8902 28.3334 57.1663 28.3334H74.3747C75.314 28.3334 76.2148 28.7065 76.879 29.3707C77.5432 30.0349 77.9163 30.9357 77.9163 31.875V45.5417C77.9163 45.8179 77.6925 46.0417 77.4163 46.0417H71.333C71.0569 46.0417 70.833 45.8179 70.833 45.5417V35.9167C70.833 35.6406 70.6092 35.4167 70.333 35.4167H35.9163C35.6402 35.4167 35.4163 35.6406 35.4163 35.9167V70.3334C35.4163 70.6095 35.6402 70.8334 35.9163 70.8334H49.083C49.3592 70.8334 49.583 71.0572 49.583 71.3334V77.4167C49.583 77.6929 49.3592 77.9167 49.083 77.9167H31.8747C30.9354 77.9167 30.0345 77.5436 29.3703 76.8794C28.7061 76.2152 28.333 75.3144 28.333 74.375V57.1667C28.333 56.8906 28.1092 56.6667 27.833 56.6667H21.7497C21.4735 56.6667 21.2497 56.4429 21.2497 56.1667V50.0834C21.2497 49.8072 21.4735 49.5834 21.7497 49.5834H27.833C28.1091 49.5834 28.333 49.3595 28.333 49.0834V31.875C28.333 30.9357 28.7061 30.0349 29.3703 29.3707C30.0345 28.7065 30.9354 28.3334 31.8747 28.3334H49.083C49.3591 28.3334 49.583 28.1095 49.583 27.8334V21.75ZM13.6663 49.5834C13.9425 49.5834 14.1663 49.8072 14.1663 50.0834V56.1667C14.1663 56.4429 13.9425 56.6667 13.6663 56.6667H7.58301C7.30687 56.6667 7.08301 56.4429 7.08301 56.1667V50.0834C7.08301 49.8072 7.30687 49.5834 7.58301 49.5834H13.6663ZM13.6663 35.4167C13.9425 35.4167 14.1663 35.6406 14.1663 35.9167V42C14.1663 42.2762 13.9425 42.5 13.6663 42.5H7.58301C7.30687 42.5 7.08301 42.2762 7.08301 42V35.9167C7.08301 35.6406 7.30687 35.4167 7.58301 35.4167H13.6663ZM13.6663 21.25C13.9425 21.25 14.1663 21.4739 14.1663 21.75V27.8334C14.1663 28.1095 13.9425 28.3334 13.6663 28.3334H7.58301C7.30687 28.3334 7.08301 28.1095 7.08301 27.8334V21.75C7.08301 21.4739 7.30687 21.25 7.58301 21.25H13.6663ZM13.6663 7.08337C13.9425 7.08337 14.1663 7.30723 14.1663 7.58337V13.6667C14.1663 13.9428 13.9425 14.1667 13.6663 14.1667H7.58301C7.30687 14.1667 7.08301 13.9429 7.08301 13.6667V7.58337C7.08301 7.30723 7.30687 7.08337 7.58301 7.08337H13.6663ZM27.833 7.08337C28.1091 7.08337 28.333 7.30723 28.333 7.58337V13.6667C28.333 13.9428 28.1092 14.1667 27.833 14.1667H21.7497C21.4735 14.1667 21.2497 13.9429 21.2497 13.6667V7.58337C21.2497 7.30723 21.4735 7.08337 21.7497 7.08337H27.833ZM41.9997 7.08337C42.2758 7.08337 42.4997 7.30723 42.4997 7.58337V13.6667C42.4997 13.9428 42.2758 14.1667 41.9997 14.1667H35.9163C35.6402 14.1667 35.4163 13.9429 35.4163 13.6667V7.58337C35.4163 7.30723 35.6402 7.08337 35.9163 7.08337H41.9997ZM56.1663 7.08337C56.4425 7.08337 56.6663 7.30723 56.6663 7.58337V13.6667C56.6663 13.9428 56.4425 14.1667 56.1663 14.1667H50.083C49.8069 14.1667 49.583 13.9429 49.583 13.6667V7.58337C49.583 7.30723 49.8069 7.08337 50.083 7.08337H56.1663Z" fill="url(#paint0_linear_412_2996)"/>
<defs>
<linearGradient id="paint0_linear_412_2996" x1="44.2068" y1="7.08337" x2="44.2068" y2="80.0169" gradientUnits="userSpaceOnUse">
<stop offset="0.368439" stop-color="white"/>
<stop offset="1" stop-color="#E6E6E6"/>
</linearGradient>
</defs>
</svg>
