<svg width="21" height="20" viewBox="0 0 21 20" fill="none" xmlns="http://www.w3.org/2000/svg">
<path d="M13.625 6.875V5.3125C13.625 4.8981 13.4604 4.50067 13.1674 4.20765C12.8743 3.91462 12.4769 3.75 12.0625 3.75H4.5625C4.1481 3.75 3.75067 3.91462 3.45765 4.20765C3.16462 4.50067 3 4.8981 3 5.3125V14.6875C3 15.1019 3.16462 15.4993 3.45765 15.7924C3.75067 16.0854 4.1481 16.25 4.5625 16.25H12.0625C12.4769 16.25 12.8743 16.0854 13.1674 15.7924C13.4604 15.4993 13.625 15.1019 13.625 14.6875V13.125M16.125 6.875L19.25 10M19.25 10L16.125 13.125M19.25 10H8.58594" stroke="#ef4444" stroke-width="1.25" stroke-linecap="round" stroke-linejoin="round"/>
</svg>

