<svg width="40" height="40" viewBox="0 0 40 40" fill="none" xmlns="http://www.w3.org/2000/svg">
<path d="M30.6463 11.25C30.6957 11.25 30.744 11.2354 30.7851 11.208C30.8262 11.1807 30.8583 11.1417 30.8773 11.0961C30.8963 11.0505 30.9013 11.0003 30.8918 10.9518C30.8823 10.9033 30.8586 10.8588 30.8238 10.8237L24.175 4.17499C24.14 4.14017 24.0954 4.1165 24.047 4.10698C23.9985 4.09746 23.9483 4.10252 23.9027 4.12151C23.8571 4.1405 23.8181 4.17257 23.7907 4.21368C23.7633 4.25479 23.7487 4.30309 23.7488 4.35249V9.99999C23.7488 10.3315 23.8805 10.6495 24.1149 10.8839C24.3493 11.1183 24.6673 11.25 24.9988 11.25H30.6463Z" fill="url(#paint0_linear_487_1344)"/>
<path d="M31.25 13.75H25C24.0054 13.75 23.0516 13.3549 22.3483 12.6517C21.6451 11.9484 21.25 10.9946 21.25 10V3.75375C21.2505 3.58988 21.2187 3.42752 21.1563 3.27597C21.094 3.12441 21.0024 2.98664 20.8868 2.87054C20.7711 2.75443 20.6337 2.66227 20.4824 2.59933C20.3311 2.53639 20.1689 2.50391 20.005 2.50375C17.0775 2.5 10 2.5 10 2.5C9.33696 2.5 8.70107 2.76339 8.23223 3.23223C7.76339 3.70107 7.5 4.33696 7.5 5V35C7.5 35.663 7.76339 36.2989 8.23223 36.7678C8.70107 37.2366 9.33696 37.5 10 37.5H30C30.663 37.5 31.2989 37.2366 31.7678 36.7678C32.2366 36.2989 32.5 35.663 32.5 35V15C32.5 14.6685 32.3683 14.3505 32.1339 14.1161C31.8995 13.8817 31.5815 13.75 31.25 13.75ZM18.125 17.3662C18.6195 17.3662 19.1028 17.5129 19.5139 17.7876C19.925 18.0623 20.2455 18.4527 20.4347 18.9095C20.6239 19.3664 20.6734 19.869 20.577 20.354C20.4805 20.8389 20.2424 21.2844 19.8928 21.634C19.5431 21.9836 19.0977 22.2218 18.6127 22.3182C18.1278 22.4147 17.6251 22.3652 17.1683 22.1759C16.7115 21.9867 16.321 21.6663 16.0463 21.2552C15.7716 20.8441 15.625 20.3607 15.625 19.8662C15.625 19.2032 15.8884 18.5673 16.3572 18.0985C16.8261 17.6296 17.462 17.3662 18.125 17.3662ZM30 32.6338H10V30.4613C10.0006 29.9313 10.2114 29.4233 10.5862 29.0487L15.2925 24.34C15.3854 24.247 15.4957 24.1733 15.6171 24.1229C15.7385 24.0726 15.8686 24.0467 16 24.0467C16.1314 24.0467 16.2615 24.0726 16.3829 24.1229C16.5043 24.1733 16.6146 24.247 16.7075 24.34L19.2362 26.87C19.3337 26.9674 19.4502 27.0436 19.5784 27.0939C19.7067 27.1442 19.844 27.1674 19.9817 27.1621C20.1193 27.1568 20.2544 27.1232 20.3785 27.0632C20.5025 27.0033 20.6128 26.9183 20.7025 26.8138L25.215 21.5512C25.3107 21.4397 25.4297 21.3507 25.5637 21.2904C25.6977 21.2301 25.8433 21.2001 25.9902 21.2025C26.1372 21.2049 26.2817 21.2396 26.4137 21.3042C26.5457 21.3688 26.6618 21.4617 26.7537 21.5763L29.5613 25.085C29.8453 25.4397 30 25.8806 30 26.335V32.6338Z" fill="url(#paint1_linear_487_1344)"/>
<defs>
<linearGradient id="paint0_linear_487_1344" x1="20" y1="2.5" x2="20" y2="37.5" gradientUnits="userSpaceOnUse">
<stop stop-color="#97E89A"/>
<stop offset="1" stop-color="#41D147"/>
</linearGradient>
<linearGradient id="paint1_linear_487_1344" x1="20" y1="2.5" x2="20" y2="37.5" gradientUnits="userSpaceOnUse">
<stop stop-color="#97E89A"/>
<stop offset="1" stop-color="#41D147"/>
</linearGradient>
</defs>
</svg>
