<svg width="20" height="20" viewBox="0 0 20 20" fill="none" xmlns="http://www.w3.org/2000/svg">
<path d="M6.66658 5.00004C6.22456 5.00004 5.80063 5.17564 5.48807 5.4882C5.17551 5.80076 4.99992 6.22468 4.99992 6.66671V13.3334C4.99992 13.7754 5.17551 14.1993 5.48807 14.5119C5.80063 14.8244 6.22456 15 6.66658 15H13.3333C13.7753 15 14.1992 14.8244 14.5118 14.5119C14.8243 14.1993 14.9999 13.7754 14.9999 13.3334V11.6667C14.9999 11.4457 15.0877 11.2337 15.244 11.0775C15.4003 10.9212 15.6122 10.8334 15.8332 10.8334C16.0543 10.8334 16.2662 10.9212 16.4225 11.0775C16.5788 11.2337 16.6666 11.4457 16.6666 11.6667V13.3334C16.6666 14.2174 16.3154 15.0653 15.6903 15.6904C15.0652 16.3155 14.2173 16.6667 13.3333 16.6667H6.66658C5.78253 16.6667 4.93468 16.3155 4.30956 15.6904C3.68444 15.0653 3.33325 14.2174 3.33325 13.3334V6.66671C3.33325 5.78265 3.68444 4.93481 4.30956 4.30968C4.93468 3.68456 5.78253 3.33337 6.66658 3.33337H8.33325C8.55426 3.33337 8.76623 3.42117 8.92251 3.57745C9.07879 3.73373 9.16658 3.94569 9.16658 4.16671C9.16658 4.38772 9.07879 4.59968 8.92251 4.75596C8.76623 4.91224 8.55426 5.00004 8.33325 5.00004H6.66658ZM11.6666 5.00004C11.4456 5.00004 11.2336 4.91224 11.0773 4.75596C10.921 4.59968 10.8333 4.38772 10.8333 4.16671C10.8333 3.94569 10.921 3.73373 11.0773 3.57745C11.2336 3.42117 11.4456 3.33337 11.6666 3.33337H15.8332C16.0543 3.33337 16.2662 3.42117 16.4225 3.57745C16.5788 3.73373 16.6666 3.94569 16.6666 4.16671V8.33337C16.6666 8.55439 16.5788 8.76635 16.4225 8.92263C16.2662 9.07891 16.0543 9.16671 15.8332 9.16671C15.6122 9.16671 15.4003 9.07891 15.244 8.92263C15.0877 8.76635 14.9999 8.55439 14.9999 8.33337V6.17837L12.2566 8.92337C12.1791 9.00085 12.0871 9.06231 11.9859 9.10425C11.8847 9.14618 11.7762 9.16776 11.6666 9.16776C11.557 9.16776 11.4485 9.14618 11.3473 9.10425C11.246 9.06231 11.1541 9.00085 11.0766 8.92337C10.9991 8.84589 10.9376 8.75391 10.8957 8.65268C10.8538 8.55145 10.8322 8.44295 10.8322 8.33337C10.8322 8.2238 10.8538 8.1153 10.8957 8.01407C10.9376 7.91283 10.9991 7.82085 11.0766 7.74337L13.8216 5.00004H11.6666Z" fill="white"/>
</svg>
