<svg width="21" height="20" viewBox="0 0 21 20" fill="none" xmlns="http://www.w3.org/2000/svg">
<path d="M18.8333 11.3333C18.6123 11.3333 18.4004 11.421 18.2441 11.5773C18.0878 11.7336 18 11.9456 18 12.1666V17.9999H3.00001V12.1666C3.00001 11.9456 2.91221 11.7336 2.75593 11.5773C2.59965 11.421 2.38769 11.3333 2.16668 11.3333C1.94566 11.3333 1.7337 11.421 1.57742 11.5773C1.42114 11.7336 1.33334 11.9456 1.33334 12.1666V18.8333C1.33334 19.0543 1.42114 19.2662 1.57742 19.4225C1.7337 19.5788 1.94566 19.6666 2.16668 19.6666H18.8333C19.0544 19.6666 19.2663 19.5788 19.4226 19.4225C19.5789 19.2662 19.6667 19.0543 19.6667 18.8333V12.1666C19.6667 11.9456 19.5789 11.7336 19.4226 11.5773C19.2663 11.421 19.0544 11.3333 18.8333 11.3333Z" fill="white"/>
<path d="M10.5 2.99988C10.279 2.99988 10.067 3.08768 9.91074 3.24396C9.75446 3.40024 9.66666 3.6122 9.66666 3.83321V13.4882L7.75583 11.5774C7.67896 11.4978 7.587 11.4343 7.48533 11.3906C7.38366 11.347 7.27431 11.324 7.16366 11.323C7.05301 11.322 6.94328 11.3431 6.84087 11.385C6.73845 11.4269 6.64541 11.4888 6.56717 11.567C6.48892 11.6453 6.42705 11.7383 6.38514 11.8407C6.34324 11.9432 6.32216 12.0529 6.32312 12.1635C6.32408 12.2742 6.34707 12.3835 6.39075 12.4852C6.43442 12.5869 6.4979 12.6788 6.5775 12.7557L9.91083 16.089C9.98841 16.1662 10.0804 16.2274 10.1817 16.269C10.2824 16.3114 10.3907 16.3332 10.5 16.3332C10.6093 16.3332 10.7175 16.3114 10.8183 16.269C10.9196 16.2274 11.0116 16.1662 11.0892 16.089L14.4225 12.7557C14.5743 12.5985 14.6583 12.388 14.6564 12.1695C14.6545 11.951 14.5669 11.742 14.4123 11.5875C14.2578 11.433 14.0488 11.3454 13.8303 11.3435C13.6118 11.3416 13.4013 11.4256 13.2442 11.5774L11.3333 13.4882V3.83321C11.3333 3.6122 11.2455 3.40024 11.0893 3.24396C10.933 3.08768 10.721 2.99988 10.5 2.99988Z" fill="white"/>
</svg>
