<svg width="31" height="30" viewBox="0 0 31 30" fill="none" xmlns="http://www.w3.org/2000/svg">
<path fill-rule="evenodd" clip-rule="evenodd" d="M18.3488 2.69C17.8863 2.5 17.2988 2.5 16.125 2.5C14.9513 2.5 14.3638 2.5 13.9013 2.69C13.2856 2.94276 12.7955 3.42971 12.5388 4.04375C12.4213 4.3225 12.3763 4.64875 12.3575 5.1225C12.3492 5.46575 12.2534 5.80121 12.0793 6.09715C11.9052 6.39309 11.6585 6.63973 11.3625 6.81375C11.061 6.98138 10.722 7.07018 10.3769 7.07193C10.0319 7.07368 9.69203 6.98831 9.38878 6.82375C8.96628 6.60125 8.66003 6.47875 8.35753 6.43875C7.69572 6.35185 7.02637 6.52975 6.49503 6.93375C6.09753 7.23625 5.80378 7.74125 5.21753 8.75C4.63003 9.75875 4.33753 10.2625 4.27128 10.7562C4.18378 11.4137 4.36378 12.0787 4.77128 12.605C4.95628 12.845 5.21753 13.0463 5.62128 13.2987C6.21753 13.67 6.60003 14.3025 6.60003 15C6.60003 15.6975 6.21753 16.33 5.62253 16.7C5.21753 16.9537 4.95628 17.155 4.77003 17.395C4.56888 17.6549 4.42124 17.9521 4.33563 18.2695C4.25003 18.5868 4.22815 18.9179 4.27128 19.2438C4.33753 19.7362 4.63003 20.2412 5.21753 21.25C5.80503 22.2588 6.09753 22.7625 6.49503 23.0662C7.02503 23.47 7.69503 23.6475 8.35753 23.5613C8.66003 23.5213 8.96628 23.3988 9.38878 23.1763C9.69219 23.0115 10.0323 22.926 10.3776 22.9277C10.7228 22.9295 11.0621 23.0184 11.3638 23.1862C11.9713 23.5362 12.3313 24.18 12.3575 24.8775C12.3763 25.3525 12.4213 25.6775 12.5388 25.9562C12.7938 26.5687 13.2838 27.0562 13.9013 27.31C14.3638 27.5 14.9513 27.5 16.125 27.5C17.2988 27.5 17.8863 27.5 18.3488 27.31C18.9645 27.0572 19.4546 26.5703 19.7113 25.9562C19.8288 25.6775 19.8738 25.3525 19.8925 24.8775C19.9175 24.18 20.2788 23.535 20.8875 23.1862C21.1891 23.0186 21.5281 22.9298 21.8731 22.9281C22.2181 22.9263 22.558 23.0117 22.8613 23.1763C23.2838 23.3988 23.59 23.5213 23.8925 23.5613C24.555 23.6488 25.225 23.47 25.755 23.0662C26.1525 22.7637 26.4463 22.2588 27.0325 21.25C27.62 20.2412 27.9125 19.7375 27.9788 19.2438C28.0217 18.9178 27.9997 18.5867 27.9138 18.2693C27.828 17.952 27.6801 17.6548 27.4788 17.395C27.2938 17.155 27.0325 16.9537 26.6288 16.7013C26.0325 16.33 25.65 15.6975 25.65 15C25.65 14.3025 26.0325 13.67 26.6275 13.3C27.0325 13.0463 27.2938 12.845 27.48 12.605C27.6812 12.3451 27.8288 12.0479 27.9144 11.7305C28 11.4132 28.0219 11.0821 27.9788 10.7562C27.9125 10.2637 27.62 9.75875 27.0325 8.75C26.445 7.74125 26.1525 7.2375 25.755 6.93375C25.2237 6.52975 24.5543 6.35185 23.8925 6.43875C23.59 6.47875 23.2838 6.60125 22.8613 6.82375C22.5579 6.98854 22.2178 7.07402 21.8725 7.07227C21.5272 7.07052 21.188 6.9816 20.8863 6.81375C20.5905 6.63958 20.3441 6.39287 20.1702 6.09694C19.9963 5.80101 19.9007 5.46563 19.8925 5.1225C19.8738 4.6475 19.8288 4.3225 19.7113 4.04375C19.5842 3.73967 19.3985 3.4636 19.1647 3.23132C18.9309 2.99904 18.6537 2.8151 18.3488 2.69ZM16.125 18.75C18.2125 18.75 19.9038 17.0712 19.9038 15C19.9038 12.9288 18.2113 11.25 16.125 11.25C14.0375 11.25 12.3463 12.9288 12.3463 15C12.3463 17.0712 14.0388 18.75 16.125 18.75Z" fill="white"/>
</svg>
